<svg id="Layer_1" data-name="Layer 1" xmlns="http://www.w3.org/2000/svg" viewBox="0 0 279 180"><path d="M22.45,10h11Q53.16,20.12,53.16,38.52,53.16,44,48.84,67q7.92,4,21.92,30.72-2.24,3.67-2.24,11H59.8q-3.6-13.92-22-28.48Q21.49,99.95,18.13,100H15.89q-6.57-2.24-6.56-13.2,3.6,0,19.76-26.32,5.67,0,8.72-17.51v-8.8q0-4.39-4.32-4.4H9.33q-4.39,0-4.4-4.4Q4.93,10,22.45,10Zm68.07,8.8h6.56q5.91,0,8.8,32.88h-2.24l2.24,4.4a2,2,0,0,1-2.24,2.24l2.24,4.31v13.2l-2.24,4.4h2.24A2,2,0,0,1,108,78v4.4c0,1.5-.72,2.24-2.16,2.24q2.16,3.28,4.4,28.48H108q4.39,9,4.4,13.2h-2.16l2.16,4.4v13.12q0,4.4-4.4,4.4h-8.8q-5.11-8.56-8.72-89.91V38.52a17.16,17.16,0,0,0-2.24-8.8Q90.51,26.12,90.52,18.76Z"/><path d="M168.87,14.72q37.2,0,46.08,43.84V60.8q0,4.32-4.4,4.32Q171,65.12,171,71.75v2.16q4.4,0,4.4,2.16l4.4-2.16h26.32q13.2,0,13.19,13.2v2.16l-2.24,4.4h15.36q11,0,32.88-2.24,8.81,7.29,8.8,19.76-7.2,4.4-13.2,4.4H206.15l2.24,4.4v13.12q0,2.23,6.56,30.71v8.8c-5.12,1.44-8.06,2.16-8.8,2.16q-15.36-23-15.36-37.27H193l-2.24-4.4V115.59H171q-48.24,0-48.23-8.8a17.46,17.46,0,0,1-2.16-8.72c.48-2.93,1.94-4.4,4.4-4.4h2.16a1.94,1.94,0,0,1,2.23,2.16l4.32-2.16h30.72q-8.08-11.11-11-30.71Q147,63,147,49.76l4.4-2.16H193c0-1.55.72-3.73,2.16-6.56q-5.92-5.84-35.12-8.8-6.56-8.48-6.56-13.12Z"/></svg>